<svg width="64" height="64" viewBox="0 0 64 64" fill="none" xmlns="http://www.w3.org/2000/svg">
  <path opacity="0.4"
    d="M54.268 42.7107L47.3125 26.444C46.0458 23.4662 44.1569 21.7773 42.0014 21.6662C39.868 21.5551 37.8014 23.044 36.2236 25.8884L32.0014 33.4662C31.1125 35.0662 29.8458 36.0218 28.468 36.1329C27.0681 36.2662 25.6681 35.5329 24.5348 34.0885L24.0459 33.4662C22.4681 31.4885 20.5126 30.5329 18.5126 30.7329C16.5126 30.9329 14.8014 32.3107 13.6681 34.5551L9.82367 42.2218C8.44589 44.9996 8.57922 48.2218 10.2014 50.844C11.8237 53.4662 14.6459 55.044 17.7348 55.044H46.0903C49.068 55.044 51.8458 53.5551 53.4903 51.0662C55.1792 48.5774 55.4458 45.444 54.268 42.7107Z"
    fill="#9b9da0" />
  <path
    d="M20.8221 23.9558C24.9704 23.9558 28.3332 20.593 28.3332 16.4447C28.3332 12.2964 24.9704 8.93359 20.8221 8.93359C16.6739 8.93359 13.311 12.2964 13.311 16.4447C13.311 20.593 16.6739 23.9558 20.8221 23.9558Z"
    fill="#1C274C" />
</svg>
